<?xml version="1.0" encoding="UTF-8" standalone="no"?>
<!-- Created with Inkscape (http://www.inkscape.org/) -->

<svg
   width="48.492386mm"
   height="34.492416mm"
   viewBox="0 0 48.492387 34.492416"
   version="1.1"
   id="svg1"
   xmlns="http://www.w3.org/2000/svg"
   xmlns:svg="http://www.w3.org/2000/svg">
  <defs
     id="defs1">
    <clipPath
       clipPathUnits="userSpaceOnUse"
       id="clipPath21">
      <ellipse
         style="fill:none;stroke:#ffffff;stroke-width:0.886478;stroke-linejoin:round;stroke-dasharray:none;paint-order:stroke markers fill"
         id="ellipse21"
         cx="829.39929"
         cy="734.47681"
         rx="91.63916"
         ry="162.93954" />
    </clipPath>
  </defs>
  <g
     id="layer1"
     transform="translate(-118.53334,-96.043751)">
    <path
       id="outline-7"
       style="fill:#000000"
       d="m 1046.589,767.05247 c -3.4692,-0.0248 -7.0377,0.34548 -10.7018,1.48057 -9.0259,2.79626 -15.8822,11.23471 -18.2148,18.615 -2.3327,7.3803 -2.1991,14.10607 -1.7798,20.7124 0.8386,13.21267 3.4981,26.67685 3.4981,35.37033 0,21.12199 11.5086,38.626 27.5774,47.7684 -2.0805,1.48241 -4.0217,3.17224 -5.7388,5.12922 -1.4543,1.61642 -2.7184,3.3365 -3.8744,5.11822 -1.2585,-2.04956 -2.6499,-4.01957 -4.2113,-5.85254 -6.3234,-7.42309 -14.2256,-13.33473 -23.1513,-17.42172 -8.7564,-4.21648 -18.04304,-6.59878 -27.40204,-6.59878 -9.38991,0 -18.64277,1.24282 -27.61041,3.71565 -3.40238,0.88065 -6.65124,2.09283 -9.80592,3.4715 -1.78169,-1.5996 -3.71563,-3.00027 -5.77175,-4.1489 -7.05673,-4.11703 -15.22937,-6.2252 -23.41378,-6.2252 -10.83068,0 -21.75589,3.19254 -29.65274,10.70454 -10e-4,10e-4 -0.002,0.004 -0.004,0.006 -6.49317,6.17016 -10.97393,14.20182 -13.51607,22.95849 l -0.0661,0.2258 -0.0587,0.22948 c -0.79961,3.09837 -1.43494,6.30052 -1.98175,9.56084 -1.98209,-5.74986 -4.70249,-11.00136 -8.72831,-15.53637 -1.63411,-1.94307 -3.48897,-3.62488 -5.48536,-5.10443 17.00934,-9.52932 28.45417,-27.9801 26.80266,-48.99656 -1.80976,-23.03044 -15.1684,-41.45023 -30.30904,-54.10924 -15.14063,-12.65901 -31.72307,-20.7099 -48.51649,-20.8354 h -0.002 -0.002 c -3.46889,-0.0248 -7.03769,0.34681 -10.70271,1.4824 -9.02517,2.79669 -15.88227,11.23423 -18.21479,18.61409 -2.33265,7.38028 -2.19911,14.10606 -1.77981,20.7124 0.83859,13.21266 3.49904,26.67589 3.49904,35.36941 0,21.3457 11.74322,39.016 28.07945,48.07498 -1.80696,1.35843 -3.51825,2.85541 -5.03651,4.58583 -7.37078,8.19247 -10.66879,18.56834 -12.40449,30.47059 l -0.0239,0.15879 -0.0193,0.16063 c -0.23683,1.89469 -0.42045,3.95835 -0.61408,5.99205 -0.41672,-1.38952 -0.82644,-2.78344 -1.28506,-4.14523 -5.44591,-17.02106 -14.76276,-31.48725 -27.78939,-41.8553 -13.55578,-10.78929 -30.94466,-15.85579 -49.9631,-15.85579 -9.04769,0 -17.7995,1.62928 -25.75718,5.15125 -0.19409,0.0825 -0.37189,0.17551 -0.56451,0.25884 -1.18545,-1.18866 -2.43545,-2.31932 -3.80561,-3.32279 -7.01368,-5.13662 -15.5971,-7.18623 -24.04713,-7.18623 -10.408,0 -21.16505,4.39945 -28.22724,12.16767 -6.15894,6.77486 -10.43378,15.13363 -13.28843,24.47579 l -0.0587,0.19367 -0.0542,0.19369 c -2.40232,8.64839 -4.03794,17.84558 -4.96492,27.5792 -0.89462,9.39318 -1.34655,18.60257 -1.34655,27.62509 0,9.02265 0.45129,18.32529 1.34288,27.90966 l 0.0174,0.18082 0.0202,0.1799 c 1.15548,9.93698 3.02074,19.32872 5.64692,28.16202 h -9.2e-4 c 2.82599,9.506 7.03565,18.0058 13.09108,24.9696 l 0.12667,0.1441 0.12851,0.1414 c 7.06415,7.7367 17.72383,12.4605 28.20521,12.4605 11.67306,0 23.96763,-3.5214 31.22418,-13.4996 l 0.0964,-0.1331 0.0945,-0.1349 c 5.28693,-7.5997 7.95329,-16.7115 8.52087,-26.1565 0.65698,-7.5725 0.99224,-15.23657 0.99224,-22.99329 0,-9.67451 1.59252,-16.35694 3.4357,-20.04325 l 0.0432,-0.0854 0.0422,-0.0854 c 1.48814,-3.06926 -0.36879,-1.63661 1.75778,-1.63661 3.5125,0 1.43506,-1.16732 2.54809,1.28138 l 0.0376,0.0845 0.0395,0.0835 c 1.768,3.77171 3.29068,10.62777 3.29068,20.40123 0,7.88648 0.33806,15.77154 1.01335,23.65154 l 0.002,0.019 6.2e-4,0.021 c 0.82556,9.3556 3.60135,18.2804 8.8155,25.7755 l 0.2258,0.3231 0.24049,0.3121 c 7.26671,9.4041 19.24387,13.1333 30.63031,13.1333 10.97558,0 22.30255,-3.9115 29.80419,-12.1512 5.92177,-6.4886 9.82647,-14.5493 12.14932,-23.31 1.93911,8.4946 5.01202,16.0428 10.27312,22.4114 l 0.12759,0.1533 0.12943,0.1505 c 7.66112,8.8103 19.49184,12.746 31.00939,12.746 11.51748,0 23.34631,-3.9354 31.00756,-12.746 6.89915,-7.9341 10.27316,-17.8891 12.07771,-29.1781 0.34691,1.3717 0.66871,2.7678 1.05468,4.1011 2.84548,9.8298 7.24561,18.6153 13.69597,25.6801 l 0.24141,0.2644 0.25334,0.2533 c 7.54307,7.5432 18.36483,11.6252 28.98635,11.6252 10.12775,0 20.30901,-2.5225 28.02988,-9.4305 l 0.16798,-0.1496 0.16247,-0.1542 c 6.26795,-5.9382 10.58096,-13.7759 12.69914,-22.1646 1.9672,-7.0061 3.08334,-14.2498 3.34941,-21.62933 0.43263,-6.77391 0.6618,-13.09204 0.6618,-18.95003 0,-7.47188 1.63478,-10.83239 4.75472,-13.84835 l 0.004,-0.004 0.002,-0.002 c 4.33477,-4.19488 7.11239,-5.12739 10.71556,-5.12739 1.4749,0 2.02627,0.24031 1.79724,0.1487 1.8727,0.74912 3.88476,1.60961 6.02417,2.58205 l 0.55809,0.25335 0.57643,0.21019 c 4.78492,1.74005 9.45904,2.22316 14.30731,2.22316 8.6867,0 17.5479,-2.68518 24.6006,-7.78379 -0.054,3.12722 -0.2019,5.88234 -0.2019,9.23866 v 0.10372 l 6e-4,0.10556 c 0.2173,16.30897 0.965,29.84844 2.3516,40.941 l 0.023,0.1836 0.027,0.1836 c 1.7379,11.6686 4.9349,21.8033 11.7225,30.0199 l 0.1276,0.1533 0.1294,0.1505 c 7.6612,8.8104 19.4918,12.746 31.0094,12.746 11.5175,0 23.3464,-3.9356 31.0075,-12.746 7.1383,-8.209 10.5449,-18.5463 12.299,-30.3237 v -0.024 -0.024 c 1.668,-11.43693 2.2895,-25.15266 2.0744,-41.56982 0,-16.37733 -0.7412,-30.03787 -2.3939,-41.37064 -1.7214,-11.80449 -4.9914,-22.10133 -12.2356,-30.26223 -1.553,-1.84679 -3.3136,-3.44645 -5.1962,-4.87404 17.5052,-9.37541 29.4002,-28.07964 27.7197,-49.4656 -1.8098,-23.03035 -15.1703,-41.45117 -30.3109,-54.11016 -15.1407,-12.65901 -31.7231,-20.70894 -48.5165,-20.83449 v 0 z m -12.8644,185.42118 -0.2286,0.27812 c 0.036,-0.0424 0.062,-0.0924 0.097,-0.13493 0.041,-0.0503 0.091,-0.0927 0.1313,-0.14319 z m -157.11499,15.38583 6.1e-4,0.2102 c 0,-0.0349 -6.1e-4,-0.0652 -6.1e-4,-0.10005 -5.1e-4,-0.0382 5.1e-4,-0.0719 0,-0.11015 z m -82.85327,16.14401 -6.2e-4,0.1744 c 2.5e-4,-0.0225 -0.002,-0.0435 -0.002,-0.0661 3e-5,-0.0368 0.002,-0.0714 0.002,-0.10831 z m -3.22367,30.09791 -0.0688,0.3011 c 0.0151,-0.064 0.0245,-0.1308 0.0395,-0.1946 0.008,-0.036 0.0215,-0.07 0.0294,-0.1065 z"
       clip-path="url(#clipPath21)"
       transform="matrix(0.26458333,0,0,0.26458333,-76.665697,-106.90524)" />
  </g>
</svg>
